# xmcd
#
# Track frame offsets:
#	150
#	10290
#	21443
#	33791
#	44558
#	55552
#	65886
#	76728
#	87771
#	96845
#	107851
#	118992
#	128376
#	136865
#	146890
#
# Disc length: 2100 seconds
#
# Revision: 1
# Processed by: cddbd v1.5.2PL0 Copyright (c) Steve Scherf et al.
# Submitted via: audiograbber 1.83.01
#
DISCID=c908320f
DTITLE=Patsy Cline - A Collection Of Country Classics, Disk 2
DYEAR=1996
DGENRE=Country
TTITLE0=Patsy Cline - A Collection Of Country Classics, Disk 2 - 01 - Walking D
TTITLE0=ream
TTITLE1=The Heart You Break May Be Your Own
TTITLE2=Just A Closer Walk With Thee
TTITLE3=Don't Ever Leave Me Again
TTITLE4=Dear God
TTITLE5=That Wonderful Someone
TTITLE6=Hidin' Out
TTITLE7=Crazy Dreams
TTITLE8=Come On In (And Make Yourself At Home)
TTITLE9=Hungry For Love
TTITLE10=Cry Not For Me
TTITLE11=I'm Blue Again
TTITLE12=Ain't No Wheels On This Ship
TTITLE13=He'll Do For You
TTITLE14=I Can't Forget
EXTD=
EXTT0=
EXTT1=
EXTT2=
EXTT3=
EXTT4=
EXTT5=
EXTT6=
EXTT7=
EXTT8=
EXTT9=
EXTT10=
EXTT11=
EXTT12=
EXTT13=
EXTT14=
PLAYORDER=
